<mxfile host="Electron" modified="2024-07-26T07:19:11.835Z" agent="Mozilla/5.0 (Macintosh; Intel Mac OS X 10_15_7) AppleWebKit/537.36 (KHTML, like Gecko) draw.io/24.6.4 Chrome/124.0.6367.207 Electron/30.0.6 Safari/537.36" etag="hguBymxv6QXOf6O2JZBr" version="24.6.4" type="device">
  <diagram name="第 1 页" id="GzuQODZVngH-pZRp_Yt_">
    <mxGraphModel dx="707" dy="539" grid="1" gridSize="10" guides="1" tooltips="1" connect="1" arrows="1" fold="1" page="1" pageScale="1" pageWidth="827" pageHeight="1169" math="0" shadow="0">
      <root>
        <mxCell id="0" />
        <mxCell id="1" parent="0" />
        <mxCell id="vh6HGrzRIvcbnFgbfrMu-3" value="1" style="text;html=1;align=center;verticalAlign=middle;resizable=0;points=[];autosize=1;strokeColor=none;fillColor=none;" vertex="1" parent="1">
          <mxGeometry x="105" y="228" width="30" height="30" as="geometry" />
        </mxCell>
        <mxCell id="vh6HGrzRIvcbnFgbfrMu-4" value="" style="endArrow=none;html=1;rounded=0;entryX=0;entryY=0.8;entryDx=0;entryDy=0;entryPerimeter=0;" edge="1" parent="1" target="vh6HGrzRIvcbnFgbfrMu-5">
          <mxGeometry width="50" height="50" relative="1" as="geometry">
            <mxPoint x="130" y="228" as="sourcePoint" />
            <mxPoint x="180" y="178" as="targetPoint" />
          </mxGeometry>
        </mxCell>
        <mxCell id="vh6HGrzRIvcbnFgbfrMu-5" value="2" style="text;html=1;align=center;verticalAlign=middle;resizable=0;points=[];autosize=1;strokeColor=none;fillColor=none;" vertex="1" parent="1">
          <mxGeometry x="190" y="160" width="30" height="30" as="geometry" />
        </mxCell>
        <mxCell id="vh6HGrzRIvcbnFgbfrMu-6" value="" style="endArrow=none;html=1;rounded=0;exitX=1.133;exitY=0.533;exitDx=0;exitDy=0;exitPerimeter=0;" edge="1" parent="1" source="vh6HGrzRIvcbnFgbfrMu-5">
          <mxGeometry width="50" height="50" relative="1" as="geometry">
            <mxPoint x="290" y="190" as="sourcePoint" />
            <mxPoint x="320" y="176" as="targetPoint" />
          </mxGeometry>
        </mxCell>
        <mxCell id="vh6HGrzRIvcbnFgbfrMu-7" value="2" style="text;html=1;align=center;verticalAlign=middle;resizable=0;points=[];autosize=1;strokeColor=none;fillColor=none;" vertex="1" parent="1">
          <mxGeometry x="320" y="160" width="30" height="30" as="geometry" />
        </mxCell>
        <mxCell id="vh6HGrzRIvcbnFgbfrMu-8" value="" style="endArrow=none;html=1;rounded=0;exitX=1.133;exitY=0.533;exitDx=0;exitDy=0;exitPerimeter=0;" edge="1" parent="1">
          <mxGeometry width="50" height="50" relative="1" as="geometry">
            <mxPoint x="350" y="174.5" as="sourcePoint" />
            <mxPoint x="446" y="174.5" as="targetPoint" />
          </mxGeometry>
        </mxCell>
        <mxCell id="vh6HGrzRIvcbnFgbfrMu-9" value="2" style="text;html=1;align=center;verticalAlign=middle;resizable=0;points=[];autosize=1;strokeColor=none;fillColor=none;" vertex="1" parent="1">
          <mxGeometry x="450" y="160" width="30" height="30" as="geometry" />
        </mxCell>
        <mxCell id="vh6HGrzRIvcbnFgbfrMu-10" value="" style="endArrow=none;html=1;rounded=0;exitX=1.133;exitY=0.533;exitDx=0;exitDy=0;exitPerimeter=0;" edge="1" parent="1">
          <mxGeometry width="50" height="50" relative="1" as="geometry">
            <mxPoint x="480" y="174.5" as="sourcePoint" />
            <mxPoint x="576" y="174.5" as="targetPoint" />
          </mxGeometry>
        </mxCell>
        <mxCell id="vh6HGrzRIvcbnFgbfrMu-11" value="2" style="text;html=1;align=center;verticalAlign=middle;resizable=0;points=[];autosize=1;strokeColor=none;fillColor=none;" vertex="1" parent="1">
          <mxGeometry x="575" y="160" width="30" height="30" as="geometry" />
        </mxCell>
        <mxCell id="vh6HGrzRIvcbnFgbfrMu-12" value="" style="endArrow=none;html=1;rounded=0;entryX=1.1;entryY=0.667;entryDx=0;entryDy=0;entryPerimeter=0;exitX=-0.067;exitY=0.1;exitDx=0;exitDy=0;exitPerimeter=0;" edge="1" parent="1" source="vh6HGrzRIvcbnFgbfrMu-13" target="vh6HGrzRIvcbnFgbfrMu-11">
          <mxGeometry width="50" height="50" relative="1" as="geometry">
            <mxPoint x="650" y="220" as="sourcePoint" />
            <mxPoint x="665" y="221" as="targetPoint" />
          </mxGeometry>
        </mxCell>
        <mxCell id="vh6HGrzRIvcbnFgbfrMu-13" value="1" style="text;html=1;align=center;verticalAlign=middle;resizable=0;points=[];autosize=1;strokeColor=none;fillColor=none;" vertex="1" parent="1">
          <mxGeometry x="670" y="228" width="30" height="30" as="geometry" />
        </mxCell>
        <mxCell id="vh6HGrzRIvcbnFgbfrMu-14" value="prediff &amp;gt; 0" style="text;html=1;align=center;verticalAlign=middle;resizable=0;points=[];autosize=1;strokeColor=none;fillColor=none;" vertex="1" parent="1">
          <mxGeometry x="70" y="170" width="80" height="30" as="geometry" />
        </mxCell>
        <mxCell id="vh6HGrzRIvcbnFgbfrMu-15" value="&lt;span style=&quot;color: rgb(0, 0, 0); font-family: Helvetica; font-size: 12px; font-style: normal; font-variant-ligatures: normal; font-variant-caps: normal; font-weight: 400; letter-spacing: normal; orphans: 2; text-align: center; text-indent: 0px; text-transform: none; widows: 2; word-spacing: 0px; -webkit-text-stroke-width: 0px; white-space: nowrap; background-color: rgb(251, 251, 251); text-decoration-thickness: initial; text-decoration-style: initial; text-decoration-color: initial; display: inline !important; float: none;&quot;&gt;curdiff = 0&lt;/span&gt;" style="text;whiteSpace=wrap;html=1;" vertex="1" parent="1">
          <mxGeometry x="240" y="140" width="60" height="40" as="geometry" />
        </mxCell>
        <mxCell id="vh6HGrzRIvcbnFgbfrMu-16" value="&lt;span style=&quot;color: rgb(0, 0, 0); font-family: Helvetica; font-size: 12px; font-style: normal; font-variant-ligatures: normal; font-variant-caps: normal; font-weight: 400; letter-spacing: normal; orphans: 2; text-align: center; text-indent: 0px; text-transform: none; widows: 2; word-spacing: 0px; -webkit-text-stroke-width: 0px; white-space: nowrap; background-color: rgb(251, 251, 251); text-decoration-thickness: initial; text-decoration-style: initial; text-decoration-color: initial; display: inline !important; float: none;&quot;&gt;prediff = 0&lt;/span&gt;" style="text;whiteSpace=wrap;html=1;" vertex="1" parent="1">
          <mxGeometry x="500" y="140" width="60" height="40" as="geometry" />
        </mxCell>
        <mxCell id="vh6HGrzRIvcbnFgbfrMu-17" value="&lt;span style=&quot;color: rgb(0, 0, 0); font-family: Helvetica; font-size: 12px; font-style: normal; font-variant-ligatures: normal; font-variant-caps: normal; font-weight: 400; letter-spacing: normal; orphans: 2; text-align: center; text-indent: 0px; text-transform: none; widows: 2; word-spacing: 0px; -webkit-text-stroke-width: 0px; white-space: nowrap; background-color: rgb(251, 251, 251); text-decoration-thickness: initial; text-decoration-style: initial; text-decoration-color: initial; display: inline !important; float: none;&quot;&gt;curdiff &amp;lt; 0&lt;/span&gt;" style="text;whiteSpace=wrap;html=1;" vertex="1" parent="1">
          <mxGeometry x="650" y="170" width="60" height="30" as="geometry" />
        </mxCell>
        <mxCell id="vh6HGrzRIvcbnFgbfrMu-18" value="" style="endArrow=none;html=1;rounded=0;strokeColor=#FF0000;" edge="1" parent="1">
          <mxGeometry width="50" height="50" relative="1" as="geometry">
            <mxPoint x="195" y="185" as="sourcePoint" />
            <mxPoint x="215" y="165" as="targetPoint" />
          </mxGeometry>
        </mxCell>
        <mxCell id="vh6HGrzRIvcbnFgbfrMu-19" value="" style="endArrow=none;html=1;rounded=0;strokeColor=#FF0000;" edge="1" parent="1">
          <mxGeometry width="50" height="50" relative="1" as="geometry">
            <mxPoint x="215" y="185" as="sourcePoint" />
            <mxPoint x="195" y="165" as="targetPoint" />
          </mxGeometry>
        </mxCell>
        <mxCell id="vh6HGrzRIvcbnFgbfrMu-20" value="" style="endArrow=none;html=1;rounded=0;strokeColor=#FF0000;" edge="1" parent="1">
          <mxGeometry width="50" height="50" relative="1" as="geometry">
            <mxPoint x="325" y="185" as="sourcePoint" />
            <mxPoint x="345" y="165" as="targetPoint" />
          </mxGeometry>
        </mxCell>
        <mxCell id="vh6HGrzRIvcbnFgbfrMu-21" value="" style="endArrow=none;html=1;rounded=0;strokeColor=#FF0000;" edge="1" parent="1">
          <mxGeometry width="50" height="50" relative="1" as="geometry">
            <mxPoint x="345" y="185" as="sourcePoint" />
            <mxPoint x="325" y="165" as="targetPoint" />
          </mxGeometry>
        </mxCell>
        <mxCell id="vh6HGrzRIvcbnFgbfrMu-24" value="" style="endArrow=none;html=1;rounded=0;strokeColor=#FF0000;" edge="1" parent="1">
          <mxGeometry width="50" height="50" relative="1" as="geometry">
            <mxPoint x="455" y="185" as="sourcePoint" />
            <mxPoint x="475" y="165" as="targetPoint" />
          </mxGeometry>
        </mxCell>
        <mxCell id="vh6HGrzRIvcbnFgbfrMu-25" value="" style="endArrow=none;html=1;rounded=0;strokeColor=#FF0000;" edge="1" parent="1">
          <mxGeometry width="50" height="50" relative="1" as="geometry">
            <mxPoint x="475" y="185" as="sourcePoint" />
            <mxPoint x="455" y="165" as="targetPoint" />
          </mxGeometry>
        </mxCell>
        <mxCell id="vh6HGrzRIvcbnFgbfrMu-27" value="" style="endArrow=classic;html=1;rounded=0;" edge="1" parent="1">
          <mxGeometry width="50" height="50" relative="1" as="geometry">
            <mxPoint x="205" y="260" as="sourcePoint" />
            <mxPoint x="204.5" y="190" as="targetPoint" />
          </mxGeometry>
        </mxCell>
        <mxCell id="vh6HGrzRIvcbnFgbfrMu-28" value="i" style="text;html=1;align=center;verticalAlign=middle;resizable=0;points=[];autosize=1;strokeColor=none;fillColor=none;" vertex="1" parent="1">
          <mxGeometry x="190" y="258" width="30" height="30" as="geometry" />
        </mxCell>
        <mxCell id="vh6HGrzRIvcbnFgbfrMu-30" value="当 i 指向第一个2" style="text;html=1;align=center;verticalAlign=middle;resizable=0;points=[];autosize=1;strokeColor=none;fillColor=none;" vertex="1" parent="1">
          <mxGeometry x="200" y="238" width="110" height="30" as="geometry" />
        </mxCell>
        <mxCell id="vh6HGrzRIvcbnFgbfrMu-31" value="" style="endArrow=classic;html=1;rounded=0;" edge="1" parent="1">
          <mxGeometry width="50" height="50" relative="1" as="geometry">
            <mxPoint x="591" y="259" as="sourcePoint" />
            <mxPoint x="590.5" y="189" as="targetPoint" />
          </mxGeometry>
        </mxCell>
        <mxCell id="vh6HGrzRIvcbnFgbfrMu-32" value="i" style="text;html=1;align=center;verticalAlign=middle;resizable=0;points=[];autosize=1;strokeColor=none;fillColor=none;" vertex="1" parent="1">
          <mxGeometry x="576" y="257" width="30" height="30" as="geometry" />
        </mxCell>
        <mxCell id="vh6HGrzRIvcbnFgbfrMu-33" value="当 i 指向最后一个2" style="text;html=1;align=center;verticalAlign=middle;resizable=0;points=[];autosize=1;strokeColor=none;fillColor=none;" vertex="1" parent="1">
          <mxGeometry x="470" y="238" width="120" height="30" as="geometry" />
        </mxCell>
        <mxCell id="vh6HGrzRIvcbnFgbfrMu-35" value="" style="shape=flexArrow;endArrow=classic;html=1;rounded=0;fillColor=#F8CECC;strokeColor=#F8CECC;" edge="1" parent="1">
          <mxGeometry width="50" height="50" relative="1" as="geometry">
            <mxPoint x="400" y="280" as="sourcePoint" />
            <mxPoint x="400" y="360" as="targetPoint" />
          </mxGeometry>
        </mxCell>
        <mxCell id="vh6HGrzRIvcbnFgbfrMu-36" value="" style="endArrow=none;html=1;rounded=0;" edge="1" parent="1">
          <mxGeometry width="50" height="50" relative="1" as="geometry">
            <mxPoint x="335" y="448" as="sourcePoint" />
            <mxPoint x="385" y="398" as="targetPoint" />
          </mxGeometry>
        </mxCell>
        <mxCell id="vh6HGrzRIvcbnFgbfrMu-37" value="1" style="text;html=1;align=center;verticalAlign=middle;resizable=0;points=[];autosize=1;strokeColor=none;fillColor=none;" vertex="1" parent="1">
          <mxGeometry x="310" y="440" width="30" height="30" as="geometry" />
        </mxCell>
        <mxCell id="vh6HGrzRIvcbnFgbfrMu-39" value="2" style="text;html=1;align=center;verticalAlign=middle;resizable=0;points=[];autosize=1;strokeColor=none;fillColor=none;" vertex="1" parent="1">
          <mxGeometry x="385" y="368" width="30" height="30" as="geometry" />
        </mxCell>
        <mxCell id="vh6HGrzRIvcbnFgbfrMu-40" value="" style="endArrow=none;html=1;rounded=0;" edge="1" parent="1">
          <mxGeometry width="50" height="50" relative="1" as="geometry">
            <mxPoint x="469" y="443" as="sourcePoint" />
            <mxPoint x="414" y="398" as="targetPoint" />
          </mxGeometry>
        </mxCell>
        <mxCell id="vh6HGrzRIvcbnFgbfrMu-42" value="1" style="text;html=1;align=center;verticalAlign=middle;resizable=0;points=[];autosize=1;strokeColor=none;fillColor=none;" vertex="1" parent="1">
          <mxGeometry x="460" y="440" width="30" height="30" as="geometry" />
        </mxCell>
      </root>
    </mxGraphModel>
  </diagram>
</mxfile>
